<svg width="18" height="18" viewBox="0 0 18 18" fill="none" xmlns="http://www.w3.org/2000/svg">
<circle cx="9" cy="9" r="9" fill="#B70101"/>
<path d="M8.57795 10.9205L7.91995 6.94452V4.22852H10.104V6.94452L9.45995 10.9205H8.57795ZM8.99795 14.1685C8.54995 14.1685 8.22795 14.0658 8.03195 13.8605C7.84529 13.6552 7.75195 13.4032 7.75195 13.1045V12.7685C7.75195 12.4698 7.84529 12.2178 8.03195 12.0125C8.22795 11.8072 8.54995 11.7045 8.99795 11.7045C9.44595 11.7045 9.76329 11.8072 9.94995 12.0125C10.146 12.2178 10.244 12.4698 10.244 12.7685V13.1045C10.244 13.4032 10.146 13.6552 9.94995 13.8605C9.76329 14.0658 9.44595 14.1685 8.99795 14.1685Z" fill="white"/>
</svg>
